<?xml version="1.0" encoding="utf-8"?>
<!-- Svg Vector Icons : http://www.onlinewebfonts.com/icon -->
<!DOCTYPE svg PUBLIC "-//W3C//DTD SVG 1.1//EN" "http://www.w3.org/Graphics/SVG/1.1/DTD/svg11.dtd">
<svg version="1.1" xmlns="http://www.w3.org/2000/svg" xmlns:xlink="http://www.w3.org/1999/xlink" x="0px" y="0px" viewBox="0 0 256 256" enable-background="new 0 0 256 256" xml:space="preserve">
<metadata> Svg Vector Icons : http://www.onlinewebfonts.com/icon </metadata>
<g><g><g><path fill="#000000" d="M107.6,10.1c-2.7,0.7-3,1.9-3,13c0,6.6,0.2,10.2,0.6,10.8c0.8,1.5,1.9,2.2,3.3,2.2c3.6,0,4.2-1.4,4.2-10.7v-7.4l2,0.3c25.8,3.7,44.2,10.1,57.4,20.2c12,9.2,19.9,21.5,23.1,36.1c1.2,5.7,1.5,18,0.5,25.6c-1,7.3-4,20-8.6,35c-8.5,28.1-9.7,37-6.6,47.6c1.8,6.1,5.7,13.3,8.9,16.3c1.8,1.7,4.3,1.6,5.8-0.1c1.6-1.8,1.4-3.2-0.5-5.6c-5.3-6.7-7.4-12-7.7-19.9c-0.3-6.8,0.8-12.7,5.1-27.1c8.7-29.5,9.8-33.8,11.2-43.6c1.1-7.5,1-20.3-0.2-27.3C200.8,62,195,50.1,186,40.4c-10.6-11.5-26.1-19.8-47.3-25.4C127.2,12,110.4,9.4,107.6,10.1z"/><path fill="#000000" d="M104.8,39.5c-2.3,0.2-4.2,0.6-4.8,1c-2.2,1.8-46.2,40.7-47.1,41.7c-2.1,2.2-1.7,3.4,6,15.9c3.9,6.4,7.6,12,8.1,12.4c1.6,1.4,3.3,1,9.5-2c11.5-5.4,22-8.5,30.9-8.9l5.5-0.3l-4.8,4.9C88,125.2,78.8,139.4,77,152.4c-0.6,4.1-0.4,7.2,0.8,19.5c1,9.6,0.7,10.9-2.1,14.2c-2.9,3.4-6.7,9.1-7,10.6c-0.4,1.6,0.9,3.9,2.5,4.4c0.7,0.2,25.4,0.3,54.8,0.2l53.5-0.2l0.9-1.1c1.6-2,1.2-3.6-1.7-7c-5.7-6.7-7.9-12.5-8.2-21.8c-0.3-7,0.4-12.1,2.7-20c10.4-35.8,9.1-68.2-3.7-88.3C167,59,162,54,158,51.4C146.7,43.9,121.1,38.2,104.8,39.5z M124.1,48.3c9.2,1.6,20.3,4.9,27.1,8.2c4.5,2.2,10.4,7.9,13.2,12.7c10.1,17.2,10.8,45.2,1.9,76.6c-2.5,8.8-3.2,12.3-3.7,18.1c-0.8,9,0.7,17.6,4.3,25.4c1,2.2,1.9,4,1.9,4.1c0,0.1-19.9,0.2-44.2,0.2c-24.3,0-44.2-0.2-44.2-0.4c0-0.2,0.9-1.3,1.9-2.5c4.1-4.5,4.7-8.7,3.3-22.1c-1.2-11.8-1-16.4,0.8-21.6c3.2-9.4,10.6-19.3,28.5-38.1c10.2-10.8,10.8-11.7,9.2-13.7c-2.6-3.3-14.2-4.5-24.9-2.4c-6.1,1.1-15.5,4-21.2,6.5c-2.2,1-4.6,2-5.5,2.4l-1.5,0.7l-5-8.1c-2.8-4.5-5-8.3-5-8.4c0-0.3,37.6-33.6,41.7-36.9l2.3-1.9l7.4,0.3C116.3,47.4,121.7,47.9,124.1,48.3z"/><path fill="#000000" d="M106.7,61c-12.7,6.7-13.8,7.6-13.3,10.1c0.2,0.8,0.7,1.9,1.2,2.4c1.7,1.7,3.6,1.2,10.5-2.6c8.9-4.9,9.5-5.3,9.5-7.7c0-1.8-1.2-3.8-2.3-3.8c-0.2,0-0.8-0.1-1.1-0.2C110.8,59.1,108.8,59.9,106.7,61z"/><path fill="#000000" d="M66.2,206c-2.5,1-2.6,1.3-2.4,20.5l0.1,17.7l1.1,0.9c1.1,0.9,2.7,0.9,59.5,0.9c58,0,58.4,0,59.4-1c0.6-0.5,1.1-1.5,1.3-2c0.1-0.6,0.2-8.7,0.1-18c-0.1-17-0.1-17-1.2-18.1l-1.1-1.1l-57.9-0.1C92.3,205.7,66.8,205.8,66.2,206z M177.3,225.9l-0.1,12.3l-52.7,0.1l-52.7,0.1V226v-12.4h52.8h52.8L177.3,225.9z"/></g></g></g>
</svg>